<svg xmlns="http://www.w3.org/2000/svg" viewBox="0 0 1200 630" role="img" aria-labelledby="title desc">
  <title id="title">Ciphora preview</title>
  <desc id="desc">Ciphora gold lock shield logo and white wordmark on a black background.</desc>
  <defs>
    <linearGradient id="gold" x1="0" y1="1" x2="1" y2="0">
      <stop offset="0" stop-color="#F5A400"/>
      <stop offset="0.52" stop-color="#FFD33D"/>
      <stop offset="1" stop-color="#F6A800"/>
    </linearGradient>
    <radialGradient id="glow" cx="38%" cy="50%" r="50%">
      <stop offset="0" stop-color="#f5b301" stop-opacity=".18"/>
      <stop offset=".45" stop-color="#f5b301" stop-opacity=".04"/>
      <stop offset="1" stop-color="#000000" stop-opacity="0"/>
    </radialGradient>
    <filter id="softShadow" x="-20%" y="-20%" width="140%" height="140%">
      <feDropShadow dx="0" dy="10" stdDeviation="18" flood-color="#000000" flood-opacity=".65"/>
    </filter>
  </defs>
  <rect width="1200" height="630" fill="#020304"/>
  <rect width="1200" height="630" fill="url(#glow)"/>
  <g opacity=".055" stroke="#ffffff" stroke-width="1">
    <path d="M0 90h1200M0 180h1200M0 270h1200M0 360h1200M0 450h1200M0 540h1200"/>
    <path d="M120 0v630M240 0v630M360 0v630M480 0v630M600 0v630M720 0v630M840 0v630M960 0v630M1080 0v630"/>
  </g>
  <g transform="translate(188 160) scale(2.35)" filter="url(#softShadow)">
    <g fill="none" stroke="url(#gold)" stroke-linejoin="miter">
      <path d="M42 45V34C42 20.8 51.8 12 64 12s22 8.8 22 22v11" stroke-width="12" stroke-linecap="square"/>
      <path d="M22 56l42-15 42 15v27c0 20.5-15.7 35.8-42 43-26.3-7.2-42-22.5-42-43V56Z" stroke-width="12"/>
      <path d="M76.5 82.5A21.5 21.5 0 1 1 76.5 45.5" stroke-width="12" stroke-linecap="butt"/>
    </g>
    <path d="M64 68.5a7.5 7.5 0 1 0-5.4 12.7l-3.3 15.2h17.4l-3.3-15.2A7.5 7.5 0 0 0 64 68.5Z" fill="url(#gold)"/>
    <path d="M64 42v19M64 93v28" stroke="#050506" stroke-width="4" stroke-linecap="square"/>
  </g>
  <text x="500" y="356" fill="#f8fafc" font-family="Space Grotesk, Inter, ui-sans-serif, system-ui, sans-serif" font-size="124" font-weight="800" letter-spacing="-6">Ciphora</text>
  <rect x="636" y="253" width="22" height="22" rx="5" fill="#F5B301"/>
  <text x="505" y="407" fill="#9ca3af" font-family="ui-monospace, SFMono-Regular, Menlo, Consolas, monospace" font-size="24" letter-spacing="4">ENCRYPTED LOCAL-FIRST VAULT</text>
</svg>
