<svg xmlns="http://www.w3.org/2000/svg" viewBox="0 0 128 128" role="img" aria-labelledby="title desc">
  <title id="title">Ciphora Android launcher mark</title>
  <desc id="desc">Gold Ciphora lock shield mark scaled for Android adaptive icon safe area.</desc>
  <defs>
    <linearGradient id="gold" x1="22" y1="110" x2="104" y2="18" gradientUnits="userSpaceOnUse">
      <stop offset="0" stop-color="#F5A400"/>
      <stop offset="0.5" stop-color="#FFD33D"/>
      <stop offset="1" stop-color="#F6A800"/>
    </linearGradient>
  </defs>
  <g transform="translate(17.92 17.92) scale(0.72)">
    <g fill="none" stroke="url(#gold)" stroke-linejoin="miter">
      <path d="M42 45V34C42 20.8 51.8 12 64 12s22 8.8 22 22v11" stroke-width="12" stroke-linecap="square"/>
      <path d="M22 56l42-15 42 15v27c0 20.5-15.7 35.8-42 43-26.3-7.2-42-22.5-42-43V56Z" stroke-width="12"/>
      <path d="M76.5 82.5A21.5 21.5 0 1 1 76.5 45.5" stroke-width="12" stroke-linecap="butt"/>
    </g>
    <path d="M64 68.5a7.5 7.5 0 1 0-5.4 12.7l-3.3 15.2h17.4l-3.3-15.2A7.5 7.5 0 0 0 64 68.5Z" fill="url(#gold)"/>
    <path d="M64 42v19M64 93v28" stroke="#050506" stroke-width="4" stroke-linecap="square"/>
  </g>
</svg>
